<mxfile host="65bd71144e" pages="1">
    <diagram id="iscT3d4H0fwVi9pj34Yv" name="Page-1">
        <mxGraphModel dx="588" dy="580" grid="1" gridSize="10" guides="1" tooltips="1" connect="1" arrows="1" fold="1" page="1" pageScale="1" pageWidth="827" pageHeight="1169" math="0" shadow="0">
            <root>
                <mxCell id="0"/>
                <mxCell id="1" parent="0"/>
            </root>
        </mxGraphModel>
    </diagram>
</mxfile>